<svg xmlns="http://www.w3.org/2000/svg" id="Layer_1" x="0" y="0" version="1.1" viewBox="0 0 29 29" xml:space="preserve"><path d="M8 1.5h13a1 1 0 0 1 0 2H8a1 1 0 0 1 0-2zM7 4.5h15a1 1 0 0 1 0 2H7a1 1 0 0 1 0-2zM6 7.5h17a1 1 0 0 1 0 2H6a1 1 0 0 1 0-2zM24 28.5H5c-1.103 0-2-.897-2-2v-14c0-1.103.897-2 2-2h19c1.103 0 2 .897 2 2v14c0 1.103-.897 2-2 2zm-19-16v14h19v-14H5z"/><path d="M11.113 25.726h-.589c-.756 0-1.454-.315-1.915-.865-.467-.557-.658-1.313-.523-2.074.256-1.453 1.601-2.591 3.062-2.591h1.069v-4.51c0-1.031.773-1.886 1.799-1.99l3.826-.386a2 2 0 0 1 2.201 1.989v1.521a1.993 1.993 0 0 1-1.8 1.99l-4.026.407v3.45c0 .07-.007.138-.021.203-.006.174-.013.214-.021.264-.257 1.454-1.602 2.592-3.062 2.592zm.034-3.53c-.494 0-1.004.438-1.093.939-.031.18-.001.337.087.441.104.125.266.15.383.15h.589c.493 0 1.003-.438 1.092-.939l.004-.591h-1.062zm6.896-6.897-3.826.387v1.52l3.826-.387v-1.52z"/></svg>